<?xml version="1.0" encoding="utf-8"?>
<!-- Generator: Adobe Illustrator 16.0.0, SVG Export Plug-In . SVG Version: 6.00 Build 0)  -->
<!DOCTYPE svg PUBLIC "-//W3C//DTD SVG 1.1//EN" "http://www.w3.org/Graphics/SVG/1.1/DTD/svg11.dtd">
<svg version="1.1" id="Capa_1" xmlns="http://www.w3.org/2000/svg" xmlns:xlink="http://www.w3.org/1999/xlink" x="0px" y="0px"
	 width="500px" height="500px" viewBox="0 0 500 500" enable-background="new 0 0 500 500" xml:space="preserve">
<path fill-rule="evenodd" clip-rule="evenodd" d="M0.508,497.09c4.654-2.364,9.082-5.979,13.999-6.861
	c16.2-2.903,32.597-4.69,48.878-7.17c7.421-1.13,14.934-2.276,22.068-4.496c9.149-2.848,10.017-7.534,3.52-14.296
	c-6.546-6.813-4.708-14.401,4.221-17.422c0.262-0.089,0.521-0.196,0.787-0.279c18.574-5.794,18.307-5.818,20.107-24.963
	c2.091-22.241,4.483-44.461,7.254-66.624c0.768-6.142,3.349-12.058,5.097-18.077c0.832-0.004,1.663-0.008,2.496-0.011
	c1.479,3.079,2.962,6.158,4.669,9.705c1.779-4.624,3.436-8.931,5.227-13.592c1.726,1.021,2.959,1.751,3.536,2.093
	c12.953-14.523,14.829-32.674,14.11-49.836c-0.639-15.265,10.028-25.853,9.073-40.214c1.036,0.061,2.073,0.12,3.109,0.179
	c3.336,16.042,6.675,32.083,10.214,49.09c11.436-4.268,22.43-8.125,33.167-12.602c1.945-0.81,4.039-4.165,4.025-6.334
	c-0.215-35.612,11.436-69.329,16.353-104.103c0.459-3.24,1.155-6.446,1.74-9.667c0.721-0.004,1.439-0.008,2.157-0.011
	c2.019,35.705,4.038,71.41,6.128,108.403c2.557-0.528,5.397-0.783,8-1.707c11.042-3.923,21.836-8.655,33.067-11.903
	c9.226-2.665,11.479-8.152,10.588-16.8c-1.74-16.887,5.272-32.033,10.817-47.744c1.162,7.142,2.326,14.282,3.49,21.423
	c0.913,0.133,1.826,0.267,2.739,0.4c4.353-17.26,8.987-34.456,12.828-51.828c0.824-3.722-0.195-8.68-2.135-12.047
	c-10.594-18.369-3.115-36.717-2.276-55.607c7.82,2.578,8.98,9.543,13.642,13.551c4.013,3.45,3.571,12.083,7.021,18.718
	c8.574-27.489,17.148-54.978,25.779-82.655c4.358,19.128,8.477,38.797,13.372,58.271c5.708,22.707,11.963,45.279,18.221,67.843
	c5.724,20.642,11.769,41.193,17.664,61.79c0.229,0.802,0.624,1.666,0.515,2.441c-2.224,15.895-4.509,31.782-6.784,47.669
	c-0.276,1.932-0.771,3.859-0.813,5.797c-0.46,20.969-0.748,41.942-1.332,62.909c-0.147,5.304,1.502,8.322,6.969,9.515
	c7.03,1.532,13.922,3.699,21.998,5.901c0.488-3.449,1.142-6.266,1.232-9.101c0.176-5.556-0.954-11.334,0.188-16.646
	c7.277-33.829,15.024-67.554,22.625-101.312c0.174-0.775,0.444-1.527,1.139-3.879c5.063,23.706,9.803,45.906,14.813,69.365
	c1.214-4.183,2.115-7.278,3.014-10.374c0.9-0.036,1.801-0.073,2.7-0.11c0.664,6.388,1.387,12.768,1.976,19.161
	c1.091,11.873,2.106,23.752,3.137,35.63c0.073,0.821,0.368,1.905-0.022,2.443c-6.302,8.669-3.068,18.321-2.939,27.636
	c0.283,20.137,1.032,40.277,0.746,60.403c-0.125,8.712,2.071,13.457,11.478,12.795c1.028-0.072,2.104,0.522,3.595,0.928
	c0,15.624,0,31.109,0,47.122c-166.237,0-332.013,0-497.791,0C1.304,499.028,0.906,498.061,0.508,497.09z"/>
</svg>
