<?xml version="1.0" encoding="utf-8"?>
<!-- Generator: Adobe Illustrator 16.0.0, SVG Export Plug-In . SVG Version: 6.00 Build 0)  -->
<!DOCTYPE svg PUBLIC "-//W3C//DTD SVG 1.1//EN" "http://www.w3.org/Graphics/SVG/1.1/DTD/svg11.dtd">
<svg version="1.1" id="Capa_1" xmlns="http://www.w3.org/2000/svg" xmlns:xlink="http://www.w3.org/1999/xlink" x="0px" y="0px"
	 width="500px" height="500px" viewBox="0 0 500 500" enable-background="new 0 0 500 500" xml:space="preserve">
<path fill-rule="evenodd" clip-rule="evenodd" d="M25.313,254.348c0-6.144,0-12.288,0-18.432c0.215-1.067,0.559-2.126,0.626-3.202
	c2.395-37.959,13.109-73.387,33.652-105.418C97.087,68.834,150.755,35.364,219.407,25.72c6.298-0.885,12.645-1.428,18.969-2.129
	c6.39,0,12.778,0,19.168,0c1.068,0.215,2.13,0.558,3.208,0.628c20.188,1.323,40,4.92,58.902,12.063
	c80.227,30.315,128.823,87.551,145.093,171.919c1.295,6.718,1.955,13.559,2.91,20.342c0,11.304,0,22.609,0,33.914
	c-0.212,0.811-0.548,1.611-0.618,2.434c-1.713,20.043-5.763,39.623-13.264,58.277c-31.112,77.367-87.539,124.262-169.613,139.914
	c-6.603,1.26-13.319,1.916-19.982,2.854c-11.551,0-23.101,0-34.651,0c-0.943-0.211-1.879-0.461-2.83-0.629
	c-12.9-2.268-26.045-3.604-38.665-6.934C102.06,435.689,37.608,361.008,27.433,272.914C26.719,266.725,26.02,260.535,25.313,254.348
	z M48.44,258.727c6.103,8.594,11.282,16.443,12.254,26.004c0.904,8.895,1.014,17.875,1.417,26.818
	c0.172,3.816,0.612,8.658-3.042,10.279c-3.669,1.625-7.418-1.379-10.396-4.125c-1.973-1.818-3.967-3.615-5.952-5.424
	c1.422,5.998,3.224,11.596,5.62,16.926c6.029,13.408,12.13,26.793,18.592,39.996c3.732,7.625,9.375,13.557,17.104,17.703
	c7.832,4.201,14.494,9.99,19.581,17.52c1.914,2.832,4.4,5.666,7.29,7.381c8.752,5.189,17.632,10.104,25.137,17.125
	c2.233,2.09,4.669,4.031,7.254,5.658c2.873,1.807,5.906,3.482,9.075,4.664c5.126,1.914,10.533,3.096,15.622,5.094
	c11.784,4.625,23.533,9.268,36.364,10.008c1.225,0.07,2.477-0.316,3.717-0.49c-0.019-0.328-0.038-0.658-0.058-0.986
	c-3.626-1.459-7.277-2.863-10.86-4.422c-0.731-0.318-1.733-1.273-1.677-1.84c0.078-0.768,0.941-1.617,1.682-2.111
	c0.671-0.449,1.617-0.551,2.461-0.668c16.004-2.246,32.061-1.938,48.124-0.879c5.121,0.338,10.269,1.549,15.332,1.227
	c9.789-0.621,19.518-2.154,29.294-3.066c2.371-0.221,4.831,0.506,7.376,0.813c-2.207,7.76-2.181,7.914-9.031,9.08
	c-5.379,0.916-10.956,2.859-15.98-1.271c-14.664-1.189-29.313-2.682-44-3.4c-5.067-0.25-10.547-0.035-15.849,3.383
	c1.669,1.342,2.896,2.719,4.429,3.477c3.068,1.521,6.437,2.455,9.447,4.07c10.404,5.576,20.9,5.883,31.876,1.678
	c3.573-1.369,7.629-1.697,11.503-2.018c5.331-0.443,10.787,0.123,16.035-0.715c12.356-1.973,24.541-4.684,35.999-10.102
	c6.051-2.861,12.416-5.063,18.682-7.455c2.283-0.871,4.687-1.43,7.035-2.135c5.289-1.586,9.175-4.77,12.124-9.521
	c9.447-15.217,19.172-30.262,28.657-45.455c2.422-3.883,4.35-8.072,6.505-12.119c-2.649,1.625-4.642,3.605-6.43,5.756
	c-14.151,17.025-32.324,27.461-53.455,33.445c-5.447,1.543-10.398,4.805-15.634,7.152c-2.541,1.141-5.139,2.52-7.833,2.887
	c-8.754,1.193-17.555,2.063-26.354,2.877c-7.437,0.689-14.896,1.133-22.346,1.684c-0.033-0.213-0.068-0.426-0.103-0.639
	c7.719-1.613,15.438-3.227,23.157-4.84c-0.021-0.195-0.042-0.389-0.063-0.584c-7.659,0.584-15.319,1.168-22.979,1.754
	c-0.043-0.32-0.085-0.639-0.128-0.959c6.8-1.518,13.601-3.035,20.4-4.551c-0.04-0.178-0.081-0.357-0.121-0.535
	c-9.24,0.814-18.48,1.627-27.722,2.441c-0.035-0.211-0.071-0.422-0.106-0.633c4.288-1.057,8.576-2.113,12.864-3.168
	c-6.054-0.293-11.932,0.037-17.808,0.395c-3.51,0.215-6.83,0.578-9.985-2.082c-1.695-1.428-4.578-1.461-6.934-2.084
	c-1.377-0.365-2.775-0.652-3.634-0.852c0-4.572,0-8.646,0-13.277c-2.368,3.492-3.657,7.223-6.268,8.92
	c-9.745,6.33-20.18,10.857-32.313,10.496c-12.566-0.373-23.897-5.076-35.492-8.996c-10.279-3.475-18.271-9.916-24.268-18.855
	c-3.897-5.809-7.621-11.736-11.393-17.629c-3.341-5.221-2.655-8.662,2.517-12.375c1.952-1.4,4.023-2.633,6.896-4.5
	c-8.168-2.553-13.13-7.336-14.939-14.631c4.07,0,8.353,0.68,12.292-0.193c3.884-0.861,7.419-3.297,11.107-5.039
	c-4.29-0.141-8.261,1.123-12.212,1.061c-3.489-0.055-7.936-0.525-10.247-2.664c-7.134-6.6-12.629-14.59-15.59-24.078
	c-0.978-3.135-1.906-6.355-3.433-9.23c-2.211-4.166-2.659-8.338-1.523-12.803c0.289-1.135,0.551-2.275,0.895-3.699
	c-5.972,1.619-7.206,6.9-9.889,11.453c-0.936-1.824-1.669-3.207-2.362-4.611c-4.348-8.797-8.53-17.682-13.075-26.375
	c-4.456-8.521-5.449-17.177-2.316-26.31c1.634-4.763,1.883-9.583,0.327-14.466c-1.382-4.337-1.17-8.489,0.518-12.905
	c2.806-7.338,1.441-15.121,1.878-21.871c-2.98,0.349-5.856,1.584-7.763,0.708c-3.181-1.461-2.385-5.007-1.703-7.888
	c0.761-3.212,1.55-6.451,2.731-9.523c5.547-14.419,11.234-28.785,16.868-43.171c0.412-1.052,0.795-2.116,1.149-3.061
	c-11.553,5.733-19.849,14.509-25.769,25.63c-0.628,1.18-1.55,2.209-2.366,3.285c-8.658,11.43-14.014,24.34-17.422,38.188
	c-0.866,3.517-2.553,6.828-3.795,10.258c-0.31,0.856-0.72,1.926-0.47,2.698c2.006,6.181,0.402,12.007-0.947,18.069
	c-1.257,5.646-1.928,11.639-1.528,17.386c0.566,8.151,2.066,16.276,3.734,24.294c0.845,4.064,2.933,7.869,4.818,12.713
	C43.508,268.297,45.783,263.883,48.44,258.727z M284.927,362.182c5.881-0.428,10.062-0.57,14.198-1.066
	c10.083-1.209,19.14-4.822,25.457-13.09c2.188-2.863,4.382-6.883,4.15-10.205c-0.597-8.559-3.628-17.213-10.361-22.408
	c-10.472-8.078-21.224-15.857-34.461-19.871c-14.613-4.43-28.126-2.943-41.318,3.6c-14.365,7.125-18.39,25.699-8.416,38.211
	c3.652,4.582,7.79,8.842,12.101,12.818c5.205,4.799,11.311,8.293,18.437,9.385C271.977,360.666,279.288,361.461,284.927,362.182z
	 M129.983,366.996c-0.404,5.779,1.976,10.184,6.02,13.496c7.204,5.902,14.479,11.752,22.075,17.129
	c11.493,8.135,24.084,12.77,38.406,9.268c6.979-1.707,13.875-3.805,20.703-6.049c2.741-0.902,4.253-3.238,3.953-6.379
	c-0.465-4.871-1.641-9.631-5.19-13.086c-3.917-3.811-8.134-7.434-12.683-10.439c-5.299-3.504-11.027-6.393-16.706-9.279
	c-3.988-2.027-8.049-4.273-12.346-5.266c-23.776-5.488-17.254-6.377-39.625,3.486C131.226,361.359,129.468,363.539,129.983,366.996z
	 M134.253,327.338c7.406,0.205,10.815-4.117,8.216-11.055c-1.357-3.625-3.889-6.791-5.591-10.309
	c-5.077-10.496-13.352-16.396-24.75-18.736c-7.5-1.539-10.913,1.199-9.405,8.764c0.236,1.186,0.667,2.371,1.226,3.443
	c2.549,4.893,5.221,9.723,7.764,14.619C116.463,323.209,124.3,327.055,134.253,327.338z M225.121,330.234
	c4.63,15.916,14.629,27.631,28.579,36.137c0.812,0.494,1.877,0.549,2.771,0.934c3.222,1.383,6.666,2.436,9.585,4.303
	c12.947,8.285,26.52,5.463,40.126,2.646c0.683-0.141,1.303-0.672,1.904-1.092c4.427-3.08,8.861-6.148,13.248-9.283
	c1.572-1.123,3.018-2.424,4.521-3.645c-5.238,1.197-9.898,3.346-14.737,4.961c-4.492,1.498-9.142,3.256-13.779,3.436
	c-8.928,0.348-17.896-0.307-26.844-0.631c-1.315-0.047-2.694-0.367-3.909-0.879c-17.526-7.391-32.414-17.803-40.627-35.781
	C225.769,330.93,225.404,330.6,225.121,330.234z M47.683,276.529c-4.396,5.74-8.002,11.596-6.13,18.465
	c1.774,6.514,4.975,12.658,7.838,18.832c0.439,0.947,2.545,1.768,3.679,1.559c1.032-0.189,2.461-1.803,2.555-2.891
	c0.438-5.1,0.321-10.246,0.69-15.354C56.898,289.039,53.179,282.822,47.683,276.529z M91.834,210.25
	c1.704,6.12,4.13,11.61,8.579,15.425c1.951,1.674,6.157,1.904,8.794,1.069c1.229-0.389,1.201-4.869,1.645-7.512
	c0.094-0.557-0.078-1.296-0.4-1.764c-3.592-5.215-7.151-10.458-10.986-15.49c-0.443-0.581-3.262-0.413-3.682,0.24
	C94.173,204.731,93.088,207.583,91.834,210.25z M196.407,252.248c3.847-0.023,6.044-2.718,5.362-6.577
	c-0.652-3.688-5.2-7.9-8.937-8.278c-4.061-0.41-6.621,2.212-6.077,6.221C187.352,248.007,192.121,252.273,196.407,252.248z
	 M86.794,212.585c-2.986,8.922,4.007,21.17,15.108,21.486C91.874,230.348,91.184,220.372,86.794,212.585z"/>
<path fill-rule="evenodd" clip-rule="evenodd" fill="#FFFFFF" d="M48.44,258.727c-2.658,5.156-4.933,9.57-7.819,15.172
	c-1.885-4.844-3.973-8.648-4.818-12.713c-1.668-8.018-3.167-16.143-3.734-24.294c-0.4-5.748,0.271-11.74,1.528-17.386
	c1.349-6.062,2.953-11.888,0.947-18.069c-0.25-0.772,0.16-1.841,0.47-2.698c1.242-3.43,2.929-6.742,3.795-10.258
	c3.408-13.848,8.764-26.757,17.422-38.188c0.816-1.076,1.737-2.105,2.366-3.285c5.92-11.121,14.216-19.896,25.769-25.63
	c-0.354,0.945-0.737,2.008-1.149,3.061c-5.634,14.386-11.321,28.751-16.868,43.171c-1.181,3.072-1.97,6.311-2.731,9.523
	c-0.683,2.881-1.479,6.426,1.703,7.888c1.907,0.876,4.783-0.359,7.763-0.708c-0.437,6.75,0.928,14.532-1.878,21.871
	c-1.688,4.416-1.9,8.568-0.518,12.905c1.557,4.883,1.308,9.703-0.327,14.466c-3.133,9.133-2.139,17.789,2.316,26.31
	c4.545,8.693,8.727,17.578,13.075,26.375c0.693,1.404,1.427,2.787,2.362,4.611c2.683-4.553,3.917-9.834,9.889-11.453
	c-0.344,1.424-0.606,2.564-0.895,3.699c-1.136,4.465-0.688,8.637,1.523,12.803c1.527,2.875,2.455,6.096,3.433,9.23
	c2.961,9.488,8.456,17.479,15.59,24.078c2.312,2.139,6.758,2.609,10.247,2.664c3.951,0.063,7.922-1.201,12.212-1.061
	c-3.688,1.742-7.223,4.178-11.107,5.039c-3.938,0.873-8.222,0.193-12.292,0.193c1.809,7.295,6.771,12.078,14.939,14.631
	c-2.873,1.867-4.944,3.1-6.896,4.5c-5.172,3.713-5.858,7.154-2.517,12.375c3.771,5.893,7.495,11.82,11.393,17.629
	c5.997,8.939,13.988,15.381,24.268,18.855c11.595,3.92,22.926,8.623,35.492,8.996c12.132,0.361,22.567-4.166,32.313-10.496
	c2.611-1.697,3.9-5.428,6.268-8.92c0,4.631,0,8.705,0,13.277c0.858,0.199,2.256,0.486,3.634,0.852
	c2.356,0.623,5.239,0.656,6.934,2.084c3.155,2.66,6.476,2.297,9.985,2.082c5.876-0.357,11.754-0.688,17.808-0.395
	c-4.288,1.055-8.576,2.111-12.864,3.168c0.035,0.211,0.071,0.422,0.106,0.633c9.241-0.814,18.481-1.627,27.722-2.441
	c0.04,0.178,0.081,0.357,0.121,0.535c-6.8,1.516-13.601,3.033-20.4,4.551c0.043,0.32,0.085,0.639,0.128,0.959
	c7.659-0.586,15.319-1.17,22.979-1.754c0.021,0.195,0.041,0.389,0.063,0.584c-7.719,1.613-15.438,3.227-23.157,4.84
	c0.034,0.213,0.069,0.426,0.103,0.639c7.45-0.551,14.909-0.994,22.346-1.684c8.8-0.814,17.601-1.684,26.354-2.877
	c2.694-0.367,5.292-1.746,7.833-2.887c5.235-2.348,10.187-5.609,15.634-7.152c21.131-5.984,39.304-16.42,53.455-33.445
	c1.788-2.15,3.78-4.131,6.43-5.756c-2.155,4.047-4.083,8.236-6.505,12.119c-9.485,15.193-19.21,30.238-28.657,45.455
	c-2.949,4.752-6.835,7.936-12.124,9.521c-2.349,0.705-4.752,1.264-7.035,2.135c-6.266,2.393-12.631,4.594-18.682,7.455
	c-11.458,5.418-23.643,8.129-35.999,10.102c-5.248,0.838-10.704,0.271-16.035,0.715c-3.874,0.32-7.93,0.648-11.503,2.018
	c-10.977,4.205-21.473,3.898-31.876-1.678c-3.01-1.615-6.379-2.549-9.447-4.07c-1.533-0.758-2.76-2.135-4.429-3.477
	c5.302-3.418,10.782-3.633,15.849-3.383c14.687,0.719,29.336,2.211,44,3.4c5.024,4.131,10.602,2.188,15.98,1.271
	c6.851-1.166,6.824-1.32,9.031-9.08c-2.545-0.307-5.005-1.033-7.376-0.813c-9.776,0.912-19.505,2.445-29.294,3.066
	c-5.063,0.322-10.211-0.889-15.332-1.227c-16.063-1.059-32.119-1.367-48.124,0.879c-0.844,0.117-1.79,0.219-2.461,0.668
	c-0.74,0.494-1.604,1.344-1.682,2.111c-0.057,0.566,0.945,1.521,1.677,1.84c3.583,1.559,7.233,2.963,10.86,4.422
	c0.02,0.328,0.039,0.658,0.058,0.986c-1.24,0.174-2.492,0.561-3.717,0.49c-12.831-0.74-24.581-5.383-36.364-10.008
	c-5.089-1.998-10.495-3.18-15.622-5.094c-3.169-1.182-6.203-2.857-9.075-4.664c-2.585-1.627-5.021-3.568-7.254-5.658
	c-7.505-7.021-16.385-11.936-25.137-17.125c-2.89-1.715-5.376-4.549-7.29-7.381c-5.087-7.529-11.75-13.318-19.581-17.52
	c-7.73-4.146-13.373-10.078-17.104-17.703c-6.462-13.203-12.563-26.588-18.592-39.996c-2.396-5.33-4.198-10.928-5.62-16.926
	c1.984,1.809,3.979,3.605,5.952,5.424c2.978,2.746,6.728,5.75,10.396,4.125c3.653-1.621,3.213-6.463,3.042-10.279
	c-0.404-8.943-0.513-17.924-1.417-26.818C59.723,275.17,54.543,267.32,48.44,258.727z"/>
<path fill-rule="evenodd" clip-rule="evenodd" fill="#FFFFFF" d="M285.787,362.182c-5.639-0.721-12.95-1.516-20.213-2.627
	c-7.126-1.092-13.231-4.586-18.437-9.385c-4.312-3.977-8.449-8.236-12.101-12.818c-9.974-12.512-5.95-31.086,8.416-38.211
	c13.192-6.543,26.705-8.029,41.318-3.6c13.237,4.014,23.989,11.793,34.461,19.871c6.733,5.195,9.765,13.85,10.361,22.408
	c0.231,3.322-1.963,7.342-4.15,10.205c-6.317,8.268-15.374,11.881-25.457,13.09C295.849,361.611,291.668,361.754,285.787,362.182z"
	/>
<path fill-rule="evenodd" clip-rule="evenodd" fill="#FFFFFF" d="M129.983,366.996c-0.515-3.457,1.242-5.637,4.607-7.119
	c22.371-9.863,15.849-8.975,39.625-3.486c4.296,0.992,8.358,3.238,12.346,5.266c5.679,2.887,11.407,5.775,16.706,9.279
	c4.548,3.006,8.766,6.629,12.683,10.439c3.549,3.455,4.725,8.215,5.19,13.086c0.3,3.141-1.212,5.477-3.953,6.379
	c-6.828,2.244-13.724,4.342-20.703,6.049c-14.322,3.502-26.914-1.133-38.406-9.268c-7.595-5.377-14.871-11.227-22.075-17.129
	C131.959,377.18,129.579,372.775,129.983,366.996z"/>
<path fill-rule="evenodd" clip-rule="evenodd" fill="#FFFFFF" d="M134.253,327.338c-9.954-0.283-17.79-4.129-22.54-13.273
	c-2.543-4.896-5.215-9.727-7.764-14.619c-0.559-1.072-0.99-2.258-1.226-3.443c-1.508-7.564,1.905-10.303,9.405-8.764
	c11.398,2.34,19.673,8.24,24.75,18.736c1.702,3.518,4.233,6.684,5.591,10.309C145.068,323.221,141.66,327.543,134.253,327.338z"/>
<path fill-rule="evenodd" clip-rule="evenodd" fill="#FFFFFF" d="M225.121,330.234c0.283,0.365,0.648,0.695,0.836,1.105
	c8.213,17.979,23.101,28.391,40.627,35.781c1.215,0.512,2.594,0.832,3.909,0.879c8.948,0.324,17.916,0.979,26.844,0.631
	c4.638-0.18,9.287-1.938,13.779-3.436c4.839-1.615,9.499-3.764,14.737-4.961c-1.503,1.221-2.948,2.521-4.521,3.645
	c-4.387,3.135-8.821,6.203-13.248,9.283c-0.602,0.42-1.222,0.951-1.904,1.092c-13.606,2.816-27.179,5.639-40.126-2.646
	c-2.919-1.867-6.363-2.92-9.585-4.303c-0.894-0.385-1.959-0.439-2.771-0.934C239.75,357.865,229.751,346.15,225.121,330.234z"/>
<path fill-rule="evenodd" clip-rule="evenodd" fill="#FFFFFF" d="M47.683,276.529c5.496,6.293,9.215,12.51,8.631,20.611
	c-0.369,5.107-0.252,10.254-0.69,15.354c-0.093,1.088-1.523,2.701-2.555,2.891c-1.134,0.209-3.239-0.611-3.679-1.559
	c-2.863-6.174-6.063-12.318-7.838-18.832C39.681,288.125,43.286,282.27,47.683,276.529z"/>
<path fill-rule="evenodd" clip-rule="evenodd" fill="#FFFFFF" d="M91.834,210.25c1.253-2.666,2.338-5.518,3.951-8.032
	c0.419-0.653,3.239-0.821,3.682-0.24c3.835,5.032,7.394,10.275,10.986,15.49c0.322,0.467,0.494,1.207,0.4,1.764
	c-0.444,2.643-0.417,7.123-1.645,7.512c-2.637,0.835-6.843,0.605-8.794-1.069C95.965,221.859,93.539,216.369,91.834,210.25z"/>
<path fill-rule="evenodd" clip-rule="evenodd" fill="#FFFFFF" d="M196.407,252.248c-4.286,0.025-9.055-4.241-9.651-8.635
	c-0.544-4.009,2.016-6.63,6.077-6.221c3.737,0.378,8.284,4.59,8.937,8.278C202.451,249.53,200.253,252.225,196.407,252.248z"/>
<path fill-rule="evenodd" clip-rule="evenodd" fill="#FFFFFF" d="M86.794,212.585c4.39,7.787,5.08,17.763,15.108,21.486
	C90.801,233.755,83.808,221.507,86.794,212.585z"/>
</svg>
