<?xml version="1.0" encoding="utf-8"?>
<!-- Generator: Adobe Illustrator 16.0.0, SVG Export Plug-In . SVG Version: 6.00 Build 0)  -->
<!DOCTYPE svg PUBLIC "-//W3C//DTD SVG 1.1//EN" "http://www.w3.org/Graphics/SVG/1.1/DTD/svg11.dtd">
<svg version="1.1" id="Capa_1" xmlns="http://www.w3.org/2000/svg" xmlns:xlink="http://www.w3.org/1999/xlink" x="0px" y="0px"
	 width="300px" height="100px" viewBox="0 0 300 100" enable-background="new 0 0 300 100" xml:space="preserve">
<path fill-rule="evenodd" clip-rule="evenodd" d="M38.924,81.907c2.229-10.201,12.285-15.642,22.604-10.81
	c1.878-7.479,5.962-13.351,12.842-17c6.871-3.645,14.007-3.859,21.309-1.15c0.145-19.204,8.499-32.819,27.23-37.932
	c16.744-4.571,30.164,1.762,40.235,15.65c16.547-3.961,32.047,5.658,35.603,21.686c3.209,0,6.511-0.509,9.593,0.098
	c8.982,1.766,14.601,7.363,16.806,16.27c0.308,1.244,0.74,1.794,2.132,1.891c11.11,0.767,19.405,9.618,19.747,21.145
	c-74.234,0-148.463,0-222.686,0C23.802,84.612,30.75,79.896,38.924,81.907z"/>
</svg>
