<?xml version="1.0" encoding="utf-8"?>
<!-- Generator: Adobe Illustrator 16.0.0, SVG Export Plug-In . SVG Version: 6.00 Build 0)  -->
<!DOCTYPE svg PUBLIC "-//W3C//DTD SVG 1.1//EN" "http://www.w3.org/Graphics/SVG/1.1/DTD/svg11.dtd">
<svg version="1.1" id="Capa_1" xmlns="http://www.w3.org/2000/svg" xmlns:xlink="http://www.w3.org/1999/xlink" x="0px" y="0px"
	 width="300px" height="100px" viewBox="0 0 300 100" enable-background="new 0 0 300 100" xml:space="preserve">
<path fill-rule="evenodd" clip-rule="evenodd" d="M87.853,47.112c3.862-3.813,8.289-4.582,13.38-3.055
	c3.105-7.134,8.257-11.907,16.068-13.297c7.82-1.392,14.309,1.266,19.963,7.246c0.282-1.312,0.472-2.315,0.713-3.306
	c3.078-12.645,13.359-21.774,25.863-22.973c12.782-1.226,24.385,5.449,29.947,17.3c0.546,1.16,1.095,1.509,2.44,1.412
	c14.336-1.031,26.6,7.24,31.309,20.953c0.222,0.647,0.712,1.466,1.279,1.688c4.442,1.732,7.761,4.727,10.258,8.906
	c6.123-4.315,12.794-5.836,20.078-4.305c7.346,1.543,12.628,5.924,16.421,12.17c11.264-3.307,20.321,2.012,19.807,11.69
	c-98.369,0-196.746,0-295.374,0c-0.093-3.153,1.255-5.61,3.838-7.331c3.852-2.566,7.623-1.93,11.379,0.777
	c1.743-6.453,5.521-11.152,11.798-13.412c6.258-2.252,12.192-1.223,17.826,2.73c0.978-4.13,2.565-7.955,6.214-9.972
	c3.36-1.858,5.308-4.35,7.136-7.705c5.749-10.553,20.648-11.357,28.016-1.844C86.73,45.458,87.193,46.174,87.853,47.112z"/>
</svg>
