<?xml version="1.0" encoding="utf-8"?>
<!-- Generator: Adobe Illustrator 16.0.0, SVG Export Plug-In . SVG Version: 6.00 Build 0)  -->
<!DOCTYPE svg PUBLIC "-//W3C//DTD SVG 1.1//EN" "http://www.w3.org/Graphics/SVG/1.1/DTD/svg11.dtd">
<svg version="1.1" id="Capa_1" xmlns="http://www.w3.org/2000/svg" xmlns:xlink="http://www.w3.org/1999/xlink" x="0px" y="0px"
	 width="300px" height="100px" viewBox="0 0 300 100" enable-background="new 0 0 300 100" xml:space="preserve">
<path fill-rule="evenodd" clip-rule="evenodd" d="M25.31,91.085c-0.164-6.941,5.227-13.254,12.107-13.981
	c2.037-0.217,2.806-0.956,3.468-2.934c4.072-12.154,12.46-19.344,25.251-21.202c0.495-0.073,0.991-0.144,1.479-0.246
	c0.151-0.031,0.282-0.165,0.449-0.27c-0.359-13.508,5.021-24.008,17.414-29.744c12.954-5.994,24.797-3.081,35.071,6.623
	c7.519-11.033,18.455-12.06,25.894-9.588c9.084,3.018,14.237,10.371,15.034,21.659c11.253-0.085,18.895,5.117,22.47,16.259
	c7.621-5.806,16.069-8.035,25.365-5.849c9.345,2.197,15.903,7.999,20.104,16.657c5.745-2.088,11.415-2.473,17.184-0.566
	c5.794,1.913,10.235,5.474,13.372,10.656c0.673,1.111,1.333,1.592,2.725,1.57c6.952-0.102,11.093,3.672,11.997,10.955
	C191.595,91.085,108.527,91.085,25.31,91.085z"/>
</svg>
