<?xml version="1.0" encoding="utf-8"?>
<!-- Generator: Adobe Illustrator 16.0.0, SVG Export Plug-In . SVG Version: 6.00 Build 0)  -->
<!DOCTYPE svg PUBLIC "-//W3C//DTD SVG 1.1//EN" "http://www.w3.org/Graphics/SVG/1.1/DTD/svg11.dtd">
<svg version="1.1" id="Capa_1" xmlns="http://www.w3.org/2000/svg" xmlns:xlink="http://www.w3.org/1999/xlink" x="0px" y="0px"
	 width="300px" height="100px" viewBox="0 0 300 100" enable-background="new 0 0 300 100" xml:space="preserve">
<path fill-rule="evenodd" clip-rule="evenodd" d="M203.097,34.742c7.177,0.031,13.6,2.271,18.544,7.587
	c2.203,2.369,3.8,5.343,5.442,8.175c0.669,1.152,0.974,1.689,2.517,1.298c15.302-3.874,30.579,4.592,35.291,19.54
	c0.461,1.462,1.118,1.802,2.527,1.858c9.978,0.393,18.183,8.767,18.404,18.685c0.004,0.204-0.084,0.409-0.161,0.764
	c-69.519,0-139.04,0-208.781,0c-0.089-5.674,2.006-10.344,5.884-14.295c3.868-3.939,8.706-5.659,14.235-5.97
	c-0.345-8.667,2.637-15.758,9.65-20.786c7.019-5.033,14.714-5.493,22.971-2.435c-1.579-12.628,1.608-23.554,10.433-32.567
	c5.871-5.997,13.057-9.524,21.355-10.676C179.388,3.426,197.901,14.259,203.097,34.742z"/>
</svg>
